<svg xmlns="http://www.w3.org/2000/svg" width="48" height="48" viewBox="0 0 48 48">
  <g id="approver" transform="translate(11232 13377)">
    <rect id="Rectangle_5705" data-name="Rectangle 5705" width="48" height="48" transform="translate(-11232 -13377)" fill="none"/>
    <g id="working" transform="translate(-11231 -13376)">
      <g id="Group_391" data-name="Group 391" transform="translate(0 0)">
        <path id="Path_79" data-name="Path 79" d="M224.884,328.848a3.084,3.084,0,1,0-3.084-3.084A3.087,3.087,0,0,0,224.884,328.848Zm0-4.82a1.736,1.736,0,1,1-1.736,1.736A1.738,1.738,0,0,1,224.884,324.028Z" transform="translate(-201.911 -293.689)" fill="#212121"/>
        <path id="Path_80" data-name="Path 80" d="M44.1,41.514H41.926l.672-.646a3.828,3.828,0,0,0,1.013-3.885l-2.32-7.651a6.421,6.421,0,0,0-5.126-4.5l-.932-.155A2.808,2.808,0,0,0,33.1,23.7H29.36a1.343,1.343,0,0,1-1-1.18l-.126-1.368a7.984,7.984,0,0,0,3.27-5.6h.283a2.03,2.03,0,0,0,2.028-2.028v-1.5a2.03,2.03,0,0,0-1.135-1.82c0-.323,0-.866,0-1.777a.674.674,0,1,0-1.348,0c0,.737,0,1.234,0,1.569h-.5a.691.691,0,0,1-.711-.682V7.963A2.128,2.128,0,0,0,28,5.837a4.958,4.958,0,0,0-1.719.256,8.3,8.3,0,0,1-2.814.5,8.345,8.345,0,0,1-2.814-.5,5.245,5.245,0,0,0-1.863-.256,2.128,2.128,0,0,0-2.126,2.126v1.35a.7.7,0,0,1-.711.682h-.5V5.047A1.862,1.862,0,0,1,17.618,3.21,1.592,1.592,0,0,0,19.5,1.794a1.044,1.044,0,0,1,.858-.447h7.574a3.4,3.4,0,0,1,3.4,3.4c0,.234,0,.351,0,.41a.675.675,0,1,0,1.348.057s0-.009,0-.013,0-.1,0-.453A4.746,4.746,0,0,0,27.933,0H20.359a2.389,2.389,0,0,0-2.119,1.279.677.677,0,0,0-.077.332c0,.212-.134.3-.338.268A3.211,3.211,0,0,0,14.1,5.047V10.2a2.03,2.03,0,0,0-1.134,1.82v1.5A2.03,2.03,0,0,0,15,15.551h.284a7.771,7.771,0,0,0,1.588,3.957,8.711,8.711,0,0,0,1.681,1.647l-.125,1.361a1.342,1.342,0,0,1-1,1.18h-3.74a2.808,2.808,0,0,0-2.133.981l-.932.155a6.422,6.422,0,0,0-5.126,4.5l-2.32,7.651a3.828,3.828,0,0,0,1.013,3.885l.672.646h-2.2a2.243,2.243,0,1,0,0,4.485H44.1a2.243,2.243,0,0,0,0-4.485ZM31.549,11.343h.241a.681.681,0,0,1,.68.68v1.5a.681.681,0,0,1-.68.68h-.242ZM15,14.2a.681.681,0,0,1-.68-.68v-1.5a.681.681,0,0,1,.68-.68h.241V14.2H15ZM35.945,26.161A5.082,5.082,0,0,1,40,29.722l2.32,7.651a2.486,2.486,0,0,1-.658,2.523l-1.68,1.617H38.52a3.335,3.335,0,0,0,.208-1.162,1.4,1.4,0,0,0-1.4-1.4H35.914V26.51a2.832,2.832,0,0,0-.023-.358ZM37.331,40.3a.049.049,0,0,1,.049.049A1.978,1.978,0,0,1,37,41.514H9.784a1.977,1.977,0,0,1-.375-1.162.049.049,0,0,1,.049-.049ZM16.588,14.87V11.245a2.024,2.024,0,0,0,1.424-1.932V7.963a.779.779,0,0,1,.778-.778,4,4,0,0,1,1.43.184,9.613,9.613,0,0,0,3.247.567,9.877,9.877,0,0,0,3.247-.567A3.656,3.656,0,0,1,28,7.185a.779.779,0,0,1,.778.778v1.35A2.025,2.025,0,0,0,30.2,11.244V14.87a6.557,6.557,0,0,1-2.395,4.9,7.343,7.343,0,0,1-4.411,1.812c-2.831-.035-6.713-2.564-6.806-6.709ZM27.343,23.7h-7.9a2.7,2.7,0,0,0,.322-1.057l.062-.678a7.652,7.652,0,0,0,3.557.965H23.4a8.087,8.087,0,0,0,3.556-.973l.063.686a2.7,2.7,0,0,0,.322,1.057ZM4.468,37.373l2.32-7.651a5.082,5.082,0,0,1,4.057-3.561l.053-.009a2.832,2.832,0,0,0-.023.358v4.135a.674.674,0,1,0,1.348,0V26.51a1.468,1.468,0,0,1,1.466-1.466H33.1a1.468,1.468,0,0,1,1.466,1.466V38.955H12.222V33.833a.674.674,0,1,0-1.348,0v5.122H9.458a1.4,1.4,0,0,0-1.4,1.4,3.335,3.335,0,0,0,.208,1.162H6.806L5.125,39.9a2.486,2.486,0,0,1-.658-2.523ZM44.1,44.651H2.664a.895.895,0,1,1,0-1.79H44.1a.895.895,0,0,1,0,1.79Z" transform="translate(-0.421 0.001)" fill="#212121"/>
      </g>
    </g>
  </g>
</svg>
