<svg xmlns="http://www.w3.org/2000/svg" width="24" height="24" viewBox="0 0 24 24">
  <g id="behance" transform="translate(-9039 -2030)">
    <rect id="Rectangle_6" data-name="Rectangle 6" width="24" height="24" transform="translate(9039 2030)" fill="#fff"/>
    <g id="Group_164" data-name="Group 164" transform="translate(-252)">
      <g id="Group_182" data-name="Group 182">
        <path id="Path_13588" data-name="Path 13588" d="M1.224-12.172h4.76a4.258,4.258,0,0,1,1.462.246,3.73,3.73,0,0,1,1.181.68,3.246,3.246,0,0,1,.79,1.011,2.737,2.737,0,0,1,.289,1.241A2.722,2.722,0,0,1,9.24-7.37a3.069,3.069,0,0,1-1.164.994v.136a3.306,3.306,0,0,1,1.5,1.063,2.808,2.808,0,0,1,.569,1.793,3.058,3.058,0,0,1-.314,1.4A3.246,3.246,0,0,1,8.976-.918a3.942,3.942,0,0,1-1.266.68A4.943,4.943,0,0,1,6.154,0H1.224Zm4.59,4.964a1.667,1.667,0,0,0,1.233-.434A1.405,1.405,0,0,0,7.48-8.67a1.391,1.391,0,0,0-.425-1.02,1.585,1.585,0,0,0-1.173-.425H3.519v2.907Zm.255,5.1A1.86,1.86,0,0,0,7.4-2.542a1.464,1.464,0,0,0,.459-1.113,1.5,1.5,0,0,0-.467-1.131A1.923,1.923,0,0,0,6-5.236H3.519v3.128Zm13.464.1A4.667,4.667,0,0,1,17.978-.357a4.323,4.323,0,0,1-2.389.629A4.589,4.589,0,0,1,13.83-.06a4.234,4.234,0,0,1-1.4-.927,4.234,4.234,0,0,1-.927-1.4,4.634,4.634,0,0,1-.332-1.776,4.557,4.557,0,0,1,.323-1.709,4.356,4.356,0,0,1,.9-1.411,4.356,4.356,0,0,1,1.369-.96A4.185,4.185,0,0,1,15.5-8.6a4.537,4.537,0,0,1,1.785.332,3.641,3.641,0,0,1,1.309.918,3.95,3.95,0,0,1,.8,1.386,5.348,5.348,0,0,1,.272,1.734v.2a1.145,1.145,0,0,0-.017.187.955.955,0,0,0-.017.187H13.362a2.343,2.343,0,0,0,.28.875,2.124,2.124,0,0,0,.527.612,2.049,2.049,0,0,0,.689.357,2.686,2.686,0,0,0,.765.111,2.168,2.168,0,0,0,1.267-.349,2.543,2.543,0,0,0,.79-.875ZM17.51-5.236a1.442,1.442,0,0,0-.145-.493,1.736,1.736,0,0,0-.374-.51,1.958,1.958,0,0,0-.612-.391,2.262,2.262,0,0,0-.875-.153,2.04,2.04,0,0,0-1.258.408,2.154,2.154,0,0,0-.765,1.139Z" transform="translate(9293 2048)" fill="#212121"/>
        <rect id="Rectangle_23" data-name="Rectangle 23" width="7.5" height="1.5" transform="translate(9305 2035.5)" fill="#212121"/>
      </g>
    </g>
  </g>
</svg>
