<svg xmlns="http://www.w3.org/2000/svg" width="48" height="48" viewBox="0 0 48 48">
  <g id="Coaches" transform="translate(11313 13204)">
    <rect id="Rectangle_5704" data-name="Rectangle 5704" width="48" height="48" transform="translate(-11313 -13204)" fill="none"/>
    <g id="coach" transform="translate(-11312 -13203.063)">
      <g id="Group_490" data-name="Group 490" transform="translate(0 0.062)">
        <g id="Group_489" data-name="Group 489" transform="translate(0 0)">
          <path id="Path_107" data-name="Path 107" d="M44.082,34.785a9.575,9.575,0,0,0-7.494-7.716l-8.235-1.781H28.2V20.614a8.928,8.928,0,0,0,3.71-7.2V8.965a8.9,8.9,0,0,0-17.806,0v4.452a8.825,8.825,0,0,0,3.71,7.2v4.674h-.148L9.434,26.994A9.575,9.575,0,0,0,1.94,34.71L.011,45.172a.814.814,0,0,0,.594.89H45.269a.7.7,0,0,0,.742-.742v-.148ZM23.011,1.546a7.389,7.389,0,0,1,7.271,5.935H15.74A7.389,7.389,0,0,1,23.011,1.546Zm7.123,7.419-2.226,2.226H18.114L15.888,8.965ZM15.592,13.417V10.746L17.3,12.452a.674.674,0,0,0,.519.223H28.2a.674.674,0,0,0,.519-.223l1.706-1.706v2.671a7.419,7.419,0,0,1-14.839,0ZM26.721,21.5v4.971l-.519.519a4.581,4.581,0,0,1-3.116,1.335h-.148a4.153,4.153,0,0,1-3.116-1.335l-.519-.519V21.5a8.839,8.839,0,0,0,7.419,0ZM16.334,27.143l1.261-.3,1.113,1.187a5.882,5.882,0,0,0,4.229,1.706h.148a6.008,6.008,0,0,0,4.229-1.706L28.5,26.846l1.261.3v2.374L25.83,34.71a3.658,3.658,0,0,0-5.194-.371l-.371.371-3.932-5.194Zm6.677,12.242a2.226,2.226,0,1,1,2.226-2.226V41.61H23.753V40.127A.7.7,0,0,0,23.011,39.385ZM11.14,44.578h-9.5l.3-1.484h9.2Zm22.258.074H12.624V34.933H11.14V41.61H2.163l1.187-6.6A8.156,8.156,0,0,1,9.73,28.478l5.119-1.113v2.374a1.055,1.055,0,0,0,.148.445L19.45,36.12a4.379,4.379,0,0,0-.148,1.039,3.732,3.732,0,0,0,2.968,3.635v1.558a.7.7,0,0,0,.742.742h2.968a.7.7,0,0,0,.742-.742V37.159a4.379,4.379,0,0,0-.148-1.039l4.452-5.935a1.055,1.055,0,0,0,.148-.445v-2.3l5.119,1.113a8.156,8.156,0,0,1,6.381,6.529l1.187,6.6H34.882V35.007H33.4Zm1.484-.074V43.094h9.2l.3,1.484Z" transform="translate(0 -0.062)" fill="#212121"/>
        </g>
      </g>
      <g id="Group_492" data-name="Group 492" transform="translate(22.269 36.417)">
        <g id="Group_491" data-name="Group 491">
          <rect id="Rectangle_152" data-name="Rectangle 152" width="1.484" height="1.484" fill="#212121"/>
        </g>
      </g>
    </g>
  </g>
</svg>
