<svg xmlns="http://www.w3.org/2000/svg" width="48" height="48" viewBox="0 0 48 48">
  <g id="executive" transform="translate(11313 13377)">
    <rect id="Rectangle_5702" data-name="Rectangle 5702" width="48" height="48" transform="translate(-11313 -13377)" fill="none"/>
    <g id="employee" transform="translate(-11308 -13376)">
      <g id="Group_390" data-name="Group 390" transform="translate(24.551 35.143)">
        <path id="Path_77" data-name="Path 77" d="M324.972,391.154h-4.748a1.386,1.386,0,0,0-1.384,1.384v1.87a1.386,1.386,0,0,0,1.384,1.384h4.748a1.386,1.386,0,0,0,1.384-1.384v-1.87A1.386,1.386,0,0,0,324.972,391.154Zm.037,3.254a.037.037,0,0,1-.037.037h-4.748a.037.037,0,0,1-.037-.037v-1.87a.037.037,0,0,1,.037-.037h4.748a.037.037,0,0,1,.037.037Z" transform="translate(-318.84 -391.154)" fill="#212121"/>
      </g>
      <path id="Path_78" data-name="Path 78" d="M79.047,28.584a37.3,37.3,0,0,0-8.521-1.913.691.691,0,0,1-.6-.685V22.465a8.25,8.25,0,0,0,3.254-5.806H73.5a2.136,2.136,0,0,0,2.133-2.133V12.908a2.136,2.136,0,0,0-1.191-1.914V8.25a.674.674,0,0,0-.674-.674h0a.674.674,0,0,0-.674.674v2.525H72.1a.946.946,0,0,1-.417-.788V8.532A2.241,2.241,0,0,0,69.42,6.293h-.027a5.318,5.318,0,0,0-1.879.3,8.888,8.888,0,0,1-5.888.007,5.507,5.507,0,0,0-2.109-.312,2.241,2.241,0,0,0-2.239,2.239V9.987a.946.946,0,0,1-.417.788h-.995V5.389a2.06,2.06,0,0,1,2.4-2.033,1.664,1.664,0,0,0,1.971-1.493,1.178,1.178,0,0,1,.976-.515h8.164a3.724,3.724,0,0,1,3.719,3.718.674.674,0,0,0,.674.674h0a.674.674,0,0,0,.674-.674A5.073,5.073,0,0,0,69.373,0H61.209a2.522,2.522,0,0,0-2.237,1.351c-.146.277-.005.454-.183.606a.391.391,0,0,1-.319.068,3.409,3.409,0,0,0-3.95,3.364v5.606a2.136,2.136,0,0,0-1.191,1.914v1.617a2.136,2.136,0,0,0,2.133,2.133h.321a8.2,8.2,0,0,0,3.255,5.814v3.512a.691.691,0,0,1-.6.685,36.976,36.976,0,0,0-8.521,1.913,7.321,7.321,0,0,0-4.339,6.682V37.02a.674.674,0,1,0,1.348,0V35.265a5.972,5.972,0,0,1,3.539-5.45,26.782,26.782,0,0,1,5.715-1.449l1.575,4.047A2.248,2.248,0,0,0,60.858,33.6l.786-.4.888,1.895-1.551,9.552H52.665v-2.79a.674.674,0,0,0-1.348,0v2.79H48.168a1.247,1.247,0,0,1-1.246-1.246V40.181a.674.674,0,0,0-1.348,0v3.225A2.6,2.6,0,0,0,48.168,46H80.792a2.6,2.6,0,0,0,2.593-2.593V35.265a7.321,7.321,0,0,0-4.339-6.682ZM73.218,12.123h.323a.787.787,0,0,1,.744.785v1.617a.787.787,0,0,1-.786.786h-.282ZM55.462,15.312a.787.787,0,0,1-.786-.786V12.908a.787.787,0,0,1,.744-.785c.041,0,.062,0,.322,0l0,3.189Zm14.891,12.7c.323.042.682.091,1.067.147l-1.467,3.769a.9.9,0,0,1-1.243.476l-2.975-1.5,3.971-3.087A2.033,2.033,0,0,0,70.352,28.007Zm-1.59-1.169L64.48,30.167,60.2,26.838a2.031,2.031,0,0,0,.187-.852V23.313a9.149,9.149,0,0,0,4.087,1h.015a9.188,9.188,0,0,0,4.087-1v2.672A2.031,2.031,0,0,0,68.762,26.838ZM66.113,32.6,65.3,34.329H63.66L62.848,32.6l1.632-.824ZM57.092,15.978l0-3.857a2.181,2.181,0,0,0,1.536-2.133V8.532a.892.892,0,0,1,.877-.891,4.41,4.41,0,0,1,1.572.2,10.259,10.259,0,0,0,6.877.03,4,4,0,0,1,1.43-.232.9.9,0,0,1,.954.891V9.987a2.185,2.185,0,0,0,1.536,2.133l0,3.857a7.4,7.4,0,0,1-14.777,0ZM60.251,32.4a.9.9,0,0,1-1.243-.476l-1.467-3.77c.384-.056.743-.1,1.067-.147a2.037,2.037,0,0,0,.646-.2L63.226,30.9Zm2.1,12.252L63.8,35.677h1.352l1.457,8.975Zm19.691-1.246a1.247,1.247,0,0,1-1.246,1.246H77.643v-2.79a.674.674,0,0,0-1.348,0v2.79H67.979L66.428,35.1l.888-1.895.786.4a2.247,2.247,0,0,0,3.106-1.191l1.574-4.045A27.021,27.021,0,0,1,78.5,29.815a5.972,5.972,0,0,1,3.539,5.45v8.141Z" transform="translate(-45.575 0)" fill="#212121"/>
    </g>
  </g>
</svg>
