<svg xmlns="http://www.w3.org/2000/svg" width="24" height="24" viewBox="0 0 24 24">
  <g id="linkedin" transform="translate(-9040 -2031)">
    <rect id="Rectangle_6" data-name="Rectangle 6" width="24" height="24" transform="translate(9040 2031)" fill="#fff"/>
    <path id="Path_13587" data-name="Path 13587" d="M2.58-11.12a1.664,1.664,0,0,1-.65-.13,1.667,1.667,0,0,1-.54-.36,1.7,1.7,0,0,1-.36-.53A1.642,1.642,0,0,1,.9-12.8a1.642,1.642,0,0,1,.13-.66,1.7,1.7,0,0,1,.36-.53,1.667,1.667,0,0,1,.54-.36,1.664,1.664,0,0,1,.65-.13,1.653,1.653,0,0,1,1.2.49,1.6,1.6,0,0,1,.5,1.19,1.6,1.6,0,0,1-.5,1.19A1.653,1.653,0,0,1,2.58-11.12ZM1.28,0V-9.8H3.9V0ZM8.76-8.52h.16a3.321,3.321,0,0,1,1.24-1.17,3.626,3.626,0,0,1,1.78-.43,4.083,4.083,0,0,1,1.62.3,2.967,2.967,0,0,1,1.15.85,3.754,3.754,0,0,1,.68,1.32,5.962,5.962,0,0,1,.23,1.71V0H13V-5.62a2.255,2.255,0,0,0-.47-1.57,1.771,1.771,0,0,0-1.37-.51,1.909,1.909,0,0,0-.95.23,2.218,2.218,0,0,0-.7.62,2.806,2.806,0,0,0-.44.92A4.132,4.132,0,0,0,8.92-4.8V0H6.3V-9.8H8.76Z" transform="translate(9043.5 2050)" fill="#212121"/>
  </g>
</svg>
