<svg xmlns="http://www.w3.org/2000/svg" width="48" height="48" viewBox="0 0 48 48">
  <g id="Players" transform="translate(11229 13293)">
    <rect id="Rectangle_5706" data-name="Rectangle 5706" width="48" height="48" transform="translate(-11229 -13293)" fill="none"/>
    <g id="tennis" transform="translate(-11229 -13294)">
      <path id="Path_111" data-name="Path 111" d="M6.723,13.443c.1,0,.207-.013.31-.019v2.15a.754.754,0,0,0,.754.754h.754v.754H8.164a2.639,2.639,0,1,0,0,5.279h.377a9.046,9.046,0,0,0,4.525,7.824v2.882l-6.119,1.36A5.285,5.285,0,0,0,1.754,39.7v6.787a.754.754,0,0,0,.754.754H32.672a.754.754,0,0,0,.754-.754V39.7a5.28,5.28,0,0,0-.5-2.228.747.747,0,0,0-.44-.736,12.387,12.387,0,0,1,4.554-5.307l3.493-2.267-.022-.033A12.5,12.5,0,0,0,45.577,23.5c2.368-5.489.6-10.8-4.288-12.907s-9.962.251-12.331,5.739a11.3,11.3,0,0,0-.44,1.227,2.61,2.61,0,0,0-1.5-.476h-.377v-.754h.754a.754.754,0,0,0,.754-.754V11.8a.738.738,0,0,0-.33-.606,7.753,7.753,0,0,0-.294-7.1A4.169,4.169,0,0,0,21.59,2.7l-1,.664A9.705,9.705,0,0,0,15.626,2H14.574A8.336,8.336,0,0,0,7.938,5.318,6.82,6.82,0,0,1,2.508,8.033H1.754A.754.754,0,0,0,1.127,9.2l1.292,1.937a5.178,5.178,0,0,0,4.3,2.3Zm1.441,7.41a1.131,1.131,0,0,1,0-2.262h.377v2.262Zm1.885,1.508V16.328H25.131v6.033a7.541,7.541,0,1,1-15.082,0Zm16.59,0h.377a2.613,2.613,0,0,0,1.047-.219,12.948,12.948,0,0,0,.275,1.8l-.028.008,1.023,3.943a12.494,12.494,0,0,1-.125,6.651,5.264,5.264,0,0,0-.975-.113l-6.119-1.36V30.185A9.046,9.046,0,0,0,26.639,22.361Zm4.546,15.461L28.2,44.746l-2.078-.9,2.986-6.924Zm-23.4-2.037,1.89-.42a9.481,9.481,0,0,0,15.827,0l2.406.535-3.47,8.045a.754.754,0,0,0,.394.991l1.857.8H7.787Zm9.8-4.375a8.99,8.99,0,0,0,3.016-.528v3.973a4.586,4.586,0,0,1-6.033,0V30.882A8.99,8.99,0,0,0,17.59,31.41Zm-4.3,4.3a6.093,6.093,0,0,0,8.607,0,.752.752,0,0,0,.221-.533v-.569l1.808.4a8.013,8.013,0,0,1-12.664,0l1.808-.4v.569A.752.752,0,0,0,13.286,35.713ZM3.262,39.7A3.778,3.778,0,0,1,6.279,36.01v9.727H3.262Zm26.153,6.033,2.5-5.8v5.8Zm1.683-9.6-.729-.314a14.025,14.025,0,0,0,.731-6.691A5.821,5.821,0,0,0,32.787,30.3a6.026,6.026,0,0,0,2.39.455c.072,0,.15-.014.223-.016A13.9,13.9,0,0,0,31.1,36.142Zm6.583-24.813a7.589,7.589,0,0,1,3.011.648c4.141,1.786,5.548,6.177,3.5,10.925a11.056,11.056,0,0,1-5.072,5.291c-2.116,1.09-4.259,1.36-5.734.724-2.322-1-4.055-4.661-3.849-8.452a2.625,2.625,0,0,0,.118-.742c0-.077-.017-.149-.023-.225a10.091,10.091,0,0,1,.711-2.569c1.547-3.586,4.3-5.6,7.337-5.6ZM27.016,18.59a1.131,1.131,0,0,1,1.1.866c-.031.241-.048.483-.064.723a1.131,1.131,0,0,1-1.032.673h-.377V18.59Zm-.377-3.77H8.541V12.557h18.1ZM9.144,6.223a6.82,6.82,0,0,1,5.429-2.715h1.052A8.2,8.2,0,0,1,20.189,4.89a.753.753,0,0,0,.836,0l1.4-.934a2.661,2.661,0,0,1,3.787.894,6.243,6.243,0,0,1-.011,6.2H18.691a4.5,4.5,0,0,0,1.161-3.016H18.344a3.019,3.019,0,0,1-3.016,3.016H13.412a4.5,4.5,0,0,0,1.161-3.016H13.065a3.019,3.019,0,0,1-3.016,3.016H7.787a.754.754,0,0,0-.754.754v.118a3.667,3.667,0,0,1-3.359-1.615l-.526-.79a8.342,8.342,0,0,0,6-3.293Z" transform="translate(0)" fill="#212121"/>
      <path id="Path_113" data-name="Path 113" d="M54.525,46a4.525,4.525,0,1,0,4.525,4.525A4.529,4.529,0,0,0,54.525,46Zm0,7.541a3.016,3.016,0,1,1,3.016-3.016A3.019,3.019,0,0,1,54.525,53.541Z" transform="translate(-12.049 -10.82)" fill="#212121"/>
      <path id="Path_114" data-name="Path 114" d="M54.454,59.563a5.962,5.962,0,0,1-3.792-1.34L49.714,59.4a7.558,7.558,0,0,0,4.74,1.676Z" transform="translate(-11.979 -13.826)" fill="#212121"/>
    </g>
  </g>
</svg>
