<svg xmlns="http://www.w3.org/2000/svg" width="48" height="48" viewBox="0 0 48 48">
  <g id="Spectators" transform="translate(11313 13293)">
    <rect id="Rectangle_5703" data-name="Rectangle 5703" width="48" height="48" transform="translate(-11313 -13293)" fill="none"/>
    <g id="actor" transform="translate(-11353.186 -13292.002)">
      <g id="Group_488" data-name="Group 488" transform="translate(45.186 0.002)">
        <path id="Path_106" data-name="Path 106" d="M83.052,44.228l-.6-6.509a7.859,7.859,0,0,0-1.388-3.87.674.674,0,0,0-1.1.777,6.441,6.441,0,0,1,1.147,3.216l.6,6.508v0a.274.274,0,0,1-.261.3c-.053,0-.115,0-.187,0h-5.1v-3.31a.693.693,0,0,0-.653-.7.674.674,0,0,0-.694.674v3.339H70.1V35.183a5.175,5.175,0,0,1,2.745,1.7,1.7,1.7,0,0,0,1.219.718,1,1,0,0,0,.287-.043c.473-.142.762-.583.858-1.31a14.68,14.68,0,0,0-.246-5.057,14.734,14.734,0,0,1,2.834,1.4.674.674,0,0,0,.947-.218.69.69,0,0,0-.231-.924,17.752,17.752,0,0,0-4.122-1.89,7.356,7.356,0,0,0-2.938-2.46c-.318-.186-.625-.367-.914-.551A12.955,12.955,0,0,0,74.2,21.283a3.66,3.66,0,0,0,3.506-3.712,2.624,2.624,0,0,0-1.037-2.282c.818-3.664.457-6.948-1.018-9.08a4.723,4.723,0,0,0-3.042-2.075C70.766,1.51,68.086.161,64.43.011a15.975,15.975,0,0,0-4.357.57,23.837,23.837,0,0,1-7.246.741.673.673,0,0,0-.707.623c-.086,1.146.74,2.668,1.4,3.891.119.219.234.431.334.624-1.749,1.261-3.319,3.786-2.27,8.824a2.62,2.62,0,0,0-1.044,2.287,3.659,3.659,0,0,0,3.505,3.712,12.955,12.955,0,0,0,3.666,5.265c-.289.184-.6.364-.914.551a7.362,7.362,0,0,0-2.939,2.46,17.769,17.769,0,0,0-4.108,1.882.69.69,0,0,0-.231.924.674.674,0,0,0,.946.218,14.793,14.793,0,0,1,2.823-1.392,14.674,14.674,0,0,0-.246,5.057c.1.727.385,1.168.858,1.31a1,1,0,0,0,.288.043,1.711,1.711,0,0,0,1.221-.717,5.176,5.176,0,0,1,2.743-1.7v9.471H53.437v-3.31a.693.693,0,0,0-.653-.7.674.674,0,0,0-.694.674v3.339h-5.1c-.072,0-.134,0-.188,0a.273.273,0,0,1-.26-.3v0l.6-6.508a6.473,6.473,0,0,1,1.124-3.184.694.694,0,0,0-.129-.947.674.674,0,0,0-.959.151A7.89,7.89,0,0,0,45.8,37.719l-.6,6.509a1.654,1.654,0,0,0,.32,1.314,1.885,1.885,0,0,0,1.469.46H81.262a1.885,1.885,0,0,0,1.469-.46,1.655,1.655,0,0,0,.32-1.315ZM70.772,28.261c1.072.629,2.181,1.279,2.516,2.107a11.936,11.936,0,0,1,.592,5.651L73.861,36A6.463,6.463,0,0,0,70.1,33.8V27.862C70.322,28,70.548,28.13,70.772,28.261Zm5.1-11.852h0c.192,0,.484.467.487,1.168a2.266,2.266,0,0,1-1.786,2.282,7.072,7.072,0,0,0,.1-1.187V16.409h1.194ZM51.891,17.578c0-.7.3-1.169.487-1.169h1.194v2.264a7.072,7.072,0,0,0,.1,1.187,2.266,2.266,0,0,1-1.785-2.282Zm1.766-2.516h-.739c-.749-3.529-.211-6.017,1.6-7.413A6.272,6.272,0,0,0,58,10.1a8.339,8.339,0,0,0,2.286.307,11.46,11.46,0,0,0,5.437-1.464.674.674,0,1,0-.664-1.173A9.255,9.255,0,0,1,58.371,8.8a4.889,4.889,0,0,1-3.047-2.4c-.144-.336-.363-.74-.616-1.206A14.081,14.081,0,0,1,53.555,2.7a25.318,25.318,0,0,0,6.817-.8,14.728,14.728,0,0,1,4-.538c3.354.137,5.67,1.336,7.288,3.773a.673.673,0,0,0,.488.3,3.364,3.364,0,0,1,2.4,1.548c1.25,1.808,1.538,4.8.8,8.086l-1.55-.01c-4.05-.173-5.273-.226-8.749-1.629-3.92-1.582-7.851-1.66-10.016-.2A3.186,3.186,0,0,0,53.657,15.062ZM55.2,20.473c0-.019-.01-.038-.017-.057a6.306,6.306,0,0,1-.266-1.744V15.735a1.679,1.679,0,0,1,.863-1.4,6.2,6.2,0,0,1,3.392-.813,14.53,14.53,0,0,1,5.365,1.145c3.568,1.441,4.984,1.544,8.793,1.709v2.292a6.306,6.306,0,0,1-.266,1.744q-.01.028-.017.057a11.736,11.736,0,0,1-6.684,7.073,5.735,5.735,0,0,1-4.481,0A11.737,11.737,0,0,1,55.2,20.473Zm2.952,8.467V33.8a6.461,6.461,0,0,0-3.76,2.2l-.02.023a11.94,11.94,0,0,1,.594-5.659c.333-.823,1.442-1.473,2.514-2.1.223-.131.449-.263.672-.4Zm10.6,15.714H59.5V32.425a6.284,6.284,0,0,0,9.25,0Zm0-15.714a4.65,4.65,0,0,1-9.25,0V27.87a11.033,11.033,0,0,0,1.917.94,7.066,7.066,0,0,0,5.417,0,11.024,11.024,0,0,0,1.916-.94Z" transform="translate(-45.186 -0.002)" fill="#212121"/>
      </g>
    </g>
  </g>
</svg>
